<svg width="24" height="24" viewBox="0 0 24 24" fill="none" xmlns="http://www.w3.org/2000/svg">
<path d="M2 9C2 7.11438 2 6.17157 2.58579 5.58579C3.17157 5 4.11438 5 6 5H18C19.8856 5 20.8284 5 21.4142 5.58579C22 6.17157 22 7.11438 22 9C22 9.4714 22 9.70711 21.8536 9.85355C21.7071 10 21.4714 10 21 10H3C2.5286 10 2.29289 10 2.14645 9.85355C2 9.70711 2 9.4714 2 9Z" fill="#013064"/>
<path d="M21 12C21.4714 12 21.7071 12 21.8535 12.1465C22 12.2929 22 12.5286 22 13V18C22 19.8856 21.9998 20.8283 21.4141 21.4141C20.8283 21.9998 19.8856 22 18 22H6C4.11438 22 3.17172 21.9998 2.58594 21.4141C2.00015 20.8283 2 19.8856 2 18V13C2 12.5286 2.00004 12.2929 2.14648 12.1465C2.29293 12 2.5286 12 3 12H21ZM8 18C7.5286 18 7.29293 18 7.14648 18.1465C7.00004 18.2929 7 18.5286 7 19C7 19.4714 7.00004 19.7071 7.14648 19.8535C7.29293 20 7.5286 20 8 20H10C10.4714 20 10.7071 20 10.8535 19.8535C11 19.7071 11 19.4714 11 19C11 18.5286 11 18.2929 10.8535 18.1465C10.7071 18 10.4714 18 10 18H8ZM14 18C13.5286 18 13.2929 18 13.1465 18.1465C13 18.2929 13 18.5286 13 19C13 19.4714 13 19.7071 13.1465 19.8535C13.2929 20 13.5286 20 14 20H16C16.4714 20 16.7071 20 16.8535 19.8535C17 19.7071 17 19.4714 17 19C17 18.5286 17 18.2929 16.8535 18.1465C16.7071 18 16.4714 18 16 18H14ZM8 14C7.5286 14 7.29293 14 7.14648 14.1465C7.00004 14.2929 7 14.5286 7 15C7 15.4714 7.00004 15.7071 7.14648 15.8535C7.29293 16 7.5286 16 8 16H10C10.4714 16 10.7071 16 10.8535 15.8535C11 15.7071 11 15.4714 11 15C11 14.5286 11 14.2929 10.8535 14.1465C10.7071 14 10.4714 14 10 14H8ZM14 14C13.5286 14 13.2929 14 13.1465 14.1465C13 14.2929 13 14.5286 13 15C13 15.4714 13 15.7071 13.1465 15.8535C13.2929 16 13.5286 16 14 16H16C16.4714 16 16.7071 16 16.8535 15.8535C17 15.7071 17 15.4714 17 15C17 14.5286 17 14.2929 16.8535 14.1465C16.7071 14 16.4714 14 16 14H14Z" fill="#013064"/>
<path d="M7 3L7 6" stroke="#013064" stroke-width="2" stroke-linecap="round"/>
<path d="M17 3L17 6" stroke="#013064" stroke-width="2" stroke-linecap="round"/>
</svg>
