<svg width="24" height="24" viewBox="0 0 24 24" fill="none" xmlns="http://www.w3.org/2000/svg">
<path d="M16 3L16 6M8 3L8 6" stroke="white" stroke-width="2" stroke-linecap="round"/>
<path d="M14 6C14 7.10457 14.8954 8 16 8C17.1046 8 18 7.10457 18 6V4.07617C18.9751 4.17208 19.6312 4.38902 20.1211 4.87891C20.9998 5.75759 21 7.17157 21 10V15C21 17.8284 20.9998 19.2424 20.1211 20.1211C19.2424 20.9998 17.8284 21 15 21H9C6.17157 21 4.75759 20.9998 3.87891 20.1211C3.00023 19.2424 3 17.8284 3 15V10C3 7.17157 3.00023 5.75759 3.87891 4.87891C4.36879 4.38902 5.02492 4.17208 6 4.07617V6C6 7.10457 6.89543 8 8 8C9.10457 8 10 7.10457 10 6V4H14V6ZM8 15C7.44772 15 7 15.4477 7 16C7 16.5523 7.44772 17 8 17H16C16.5523 17 17 16.5523 17 16C17 15.4477 16.5523 15 16 15H8ZM8 11C7.44772 11 7 11.4477 7 12C7 12.5523 7.44772 13 8 13H16C16.5523 13 17 12.5523 17 12C17 11.4477 16.5523 11 16 11H8Z" fill="white"/>
</svg>
