<svg width="24" height="24" viewBox="0 0 24 24" fill="none" xmlns="http://www.w3.org/2000/svg">
<path d="M16 16.5C16 17.8807 17.1193 19 18.5 19C19.8807 19 21 17.8807 21 16.5V7C21 6.44771 20.5523 6 20 6H16.5C16.2239 6 16 6.22386 16 6.5V16.5Z" fill="white"/>
<path d="M13 4C14.1046 4 15 4.89543 15 6V17.5C15 18.8807 16.1193 20 17.5 20H6C4.34315 20 3 18.6569 3 17V6C3 4.89543 3.89543 4 5 4H13ZM6 6C5.44772 6 5 6.44772 5 7V9C5 9.55228 5.44772 10 6 10H12C12.5523 10 13 9.55228 13 9V7C13 6.44772 12.5523 6 12 6H6Z" fill="white"/>
</svg>
