<svg width="24" height="24" viewBox="0 0 24 24" fill="none" xmlns="http://www.w3.org/2000/svg">
<path d="M12.0684 2.08887C15.2889 1.58278 16.8999 1.32942 17.9502 2.22754C19.0003 3.12564 19 4.75597 19 8.01562V11H13.0811L15.7812 7.625L14.2188 6.375L10.2188 11.375L9.71973 12L10.2188 12.625L14.2188 17.625L15.7812 16.375L13.0811 13H19V15.9834C19 19.2431 19.0002 20.8734 17.9502 21.7715C16.8999 22.6696 15.2889 22.4162 12.0684 21.9102L8.37891 21.3311C6.76622 21.0776 5.95946 20.95 5.47949 20.3887C4.99995 19.8274 5 19.0109 5 17.3789V6.62012C5 4.98801 4.99988 4.17163 5.47949 3.61035C5.95945 3.04908 6.7663 2.92235 8.37891 2.66895L12.0684 2.08887Z" fill="white"/>
</svg>
