<svg width="24" height="24" viewBox="0 0 24 24" fill="none" xmlns="http://www.w3.org/2000/svg">
<path d="M12.0002 6C15.6359 6.00014 18.7677 9.21046 20.1877 10.9346C20.5759 11.4058 20.7708 11.6412 20.7708 12C20.7708 12.3588 20.5759 12.5942 20.1877 13.0654C18.7677 14.7895 15.6359 17.9999 12.0002 18C8.36451 18 5.23186 14.7896 3.81177 13.0654C3.42376 12.5943 3.22974 12.3587 3.22974 12C3.22974 11.6413 3.42376 11.4057 3.81177 10.9346C5.23186 9.21042 8.36451 6 12.0002 6ZM12.0002 9C10.3434 9 9.00024 10.3431 9.00024 12C9.00024 13.6569 10.3434 15 12.0002 15C13.657 14.9999 15.0002 13.6568 15.0002 12C15.0002 10.3432 13.657 9.00012 12.0002 9Z" fill="#013064"/>
</svg>
